<mxfile host="app.diagrams.net" agent="Mozilla/5.0 (Windows NT 10.0; Win64; x64) AppleWebKit/537.36 (KHTML, like Gecko) Chrome/138.0.0.0 Safari/537.36 Edg/138.0.0.0" version="28.0.7">
  <diagram name="第 1 页" id="fxpgeDOExwINhZjM0Ih0">
    <mxGraphModel dx="713" dy="393" grid="1" gridSize="10" guides="1" tooltips="1" connect="1" arrows="1" fold="1" page="1" pageScale="1" pageWidth="827" pageHeight="1169" math="0" shadow="0">
      <root>
        <mxCell id="0" />
        <mxCell id="1" parent="0" />
        <mxCell id="uIcFa34I3bBpMjSFiiiW-3" value="" style="edgeStyle=orthogonalEdgeStyle;rounded=0;orthogonalLoop=1;jettySize=auto;html=1;" parent="1" source="uIcFa34I3bBpMjSFiiiW-1" target="uIcFa34I3bBpMjSFiiiW-2" edge="1">
          <mxGeometry relative="1" as="geometry" />
        </mxCell>
        <mxCell id="uIcFa34I3bBpMjSFiiiW-1" value="&lt;font style=&quot;font-size: 16px;&quot;&gt;扫描100Hz ~ 71KHz&lt;/font&gt;&lt;div&gt;&lt;font style=&quot;font-size: 16px;&quot;&gt;的频段&lt;/font&gt;&lt;/div&gt;" style="rounded=0;whiteSpace=wrap;html=1;" parent="1" vertex="1">
          <mxGeometry x="50" y="680" width="90" height="90" as="geometry" />
        </mxCell>
        <mxCell id="uIcFa34I3bBpMjSFiiiW-5" value="" style="edgeStyle=orthogonalEdgeStyle;rounded=0;orthogonalLoop=1;jettySize=auto;html=1;" parent="1" source="uIcFa34I3bBpMjSFiiiW-2" target="uIcFa34I3bBpMjSFiiiW-4" edge="1">
          <mxGeometry relative="1" as="geometry" />
        </mxCell>
        <mxCell id="uIcFa34I3bBpMjSFiiiW-2" value="&lt;font style=&quot;font-size: 16px;&quot;&gt;计算接收信号的峰峰值&lt;/font&gt;" style="whiteSpace=wrap;html=1;rounded=0;" parent="1" vertex="1">
          <mxGeometry x="180" y="680" width="90" height="90" as="geometry" />
        </mxCell>
        <mxCell id="uIcFa34I3bBpMjSFiiiW-7" value="" style="edgeStyle=orthogonalEdgeStyle;rounded=0;orthogonalLoop=1;jettySize=auto;html=1;" parent="1" source="uIcFa34I3bBpMjSFiiiW-4" target="uIcFa34I3bBpMjSFiiiW-6" edge="1">
          <mxGeometry relative="1" as="geometry" />
        </mxCell>
        <mxCell id="uIcFa34I3bBpMjSFiiiW-4" value="&lt;font style=&quot;font-size: 16px;&quot;&gt;对幅频响应曲线进行滑动平均滤波&lt;/font&gt;" style="whiteSpace=wrap;html=1;rounded=0;" parent="1" vertex="1">
          <mxGeometry x="310" y="680" width="90" height="90" as="geometry" />
        </mxCell>
        <mxCell id="uIcFa34I3bBpMjSFiiiW-6" value="&lt;font style=&quot;font-size: 16px;&quot;&gt;根据曲线趋势，&lt;/font&gt;&lt;span style=&quot;font-size: 16px; background-color: transparent; color: light-dark(rgb(0, 0, 0), rgb(255, 255, 255));&quot;&gt;判断滤波器类型&lt;/span&gt;" style="whiteSpace=wrap;html=1;rounded=0;" parent="1" vertex="1">
          <mxGeometry x="440" y="680" width="90" height="90" as="geometry" />
        </mxCell>
      </root>
    </mxGraphModel>
  </diagram>
</mxfile>
